<?xml version="1.0" encoding="UTF-8"?>
<!-- Created with Inkscape (http://www.inkscape.org/) -->
<svg width="390.51" height="140.72" version="1.1" viewBox="0 0 103.32 37.231" xmlns="http://www.w3.org/2000/svg" xmlns:cc="http://creativecommons.org/ns#" xmlns:dc="http://purl.org/dc/elements/1.1/" xmlns:rdf="http://www.w3.org/1999/02/22-rdf-syntax-ns#" xmlns:xlink="http://www.w3.org/1999/xlink">
 <defs>
  <radialGradient id="radialGradient999-6-7-1-9" cx="-178.94" cy="239.76" r="10.502" gradientTransform="matrix(.64856 0 0 .61224 -63.126 262.1)" gradientUnits="userSpaceOnUse">
   <stop stop-color="#ffe777" offset="0"/>
   <stop stop-color="#ffce0a" offset="1"/>
  </radialGradient>
  <radialGradient id="radialGradient942-0-1-4-6" cx="-184.8" cy="236.58" r="11.307" gradientTransform="matrix(.64856 0 0 .46507 -63.126 298.81)" gradientUnits="userSpaceOnUse">
   <stop stop-color="#75c8ff" offset="0"/>
   <stop stop-color="#0091ee" stop-opacity=".99608" offset="1"/>
  </radialGradient>
  <linearGradient id="linearGradient3786" x1="-729.9" x2="-660.26" y1="943.22" y2="943.22" gradientTransform="matrix(.1716 0 0 .1716 -62.783 254.35)" gradientUnits="userSpaceOnUse">
   <stop stop-color="#ff0606" offset="0"/>
   <stop stop-color="#ff2121" offset="1"/>
  </linearGradient>
 </defs>
 <metadata>
  <rdf:RDF>
   <cc:Work rdf:about="">
    <dc:format>image/svg+xml</dc:format>
    <dc:type rdf:resource="http://purl.org/dc/dcmitype/StillImage"/>
    <dc:title/>
   </cc:Work>
  </rdf:RDF>
 </metadata>
 <g transform="translate(3.2801 -13.801)">
  <g transform="translate(586.22 -700.7)">
   <circle cx="-570.89" cy="733.12" r="18.087" fill="#e2e2e2"/>
   <circle cx="-570.89" cy="732.59" r="15.234" fill="#f2f2f2"/>
   <g transform="translate(-386.47 322.53)">
    <path d="m-184.62 399.01s-0.48753 1.291-1.1754 2.159c-0.68783 0.86809-1.6707 1.8272-2.943 3.0502-1.2723 1.223-4.0939 3.7201-4.0939 7.2641 1.5e-4 4.5352 3.6766 8.2117 8.2119 8.2119h5.3e-4c4.5352-1.6e-4 8.2117-3.6767 8.2119-8.2119 0-3.544-2.8213-6.0411-4.0936-7.2641-1.2723-1.223-2.2551-2.1821-2.943-3.0502-0.68787-0.86808-1.1757-2.159-1.1757-2.159z" fill="#1a83b0"/>
    <path d="m-180.27 403.68a13.261 12.078 0 0 1-9.0149 8.9881 16.815 12.078 0 0 0 8.7535 3.8714 16.815 12.078 0 0 0 4.8607-4.7783c4e-3 -0.10651 9e-3 -0.21296 9e-3 -0.32041 0-3.544-2.8216-6.0411-4.0939-7.2641-0.18149-0.17446-0.34376-0.33247-0.51345-0.49669z" fill="url(#radialGradient999-6-7-1-9)"/>
    <path d="m-189.19 412.67-7e-3 0.0673a16.815 12.078 0 0 0 8.667 3.8056 16.815 12.078 0 0 0 1.2407-0.8181c-0.42861-0.0598-0.85982-0.11985-1.3631-0.19473-5.2435-0.78003-8.537-2.8602-8.537-2.8602z" fill-opacity=".17647"/>
    <path d="m-192.77 408.84c-0.25153 0.70981-0.40653 1.4786-0.40653 2.3052 1.5e-4 4.5352 3.6767 8.2117 8.2119 8.2119h6.9e-4c2.6194-1e-4 4.9504-1.2281 6.454-3.138-6.307-0.33767-11.817-3.1888-14.26-7.379z" fill="url(#radialGradient942-0-1-4-6)"/>
    <path d="m-180.97 415.95c-0.0444 0.034-1.0592 0.80689-2.6487 1.5698-1.562 0.74974-3.5188 1.4428-3.6719 1.4968 0.0299 9e-3 0.0602 0.0169 0.0902 0.0255l3.8462 0.15148c0.21606-0.0429 0.42922-0.0937 0.63879-0.15316l3.8945-2.8451c-0.72878-0.0489-1.4463-0.13109-2.149-0.24533z" fill-opacity=".076923"/>
    <path d="m-176.08 412.38a16.815 12.078 0 0 1-11.949 6.7503c1.1261 0.58072 2.4027 0.91056 3.757 0.91061h5.3e-4c4.3499-1.5e-4 7.9076-3.3829 8.1914-7.6609z" fill="url(#linearGradient3786)"/>
    <path transform="matrix(.26458 0 0 .26458 20.073 -127.49)" d="m-741.38 2040.4c-9e-3 0.1424-0.0277 0.2819-0.0391 0.4238 0.013-0.019 0.0281-0.037 0.041-0.057zs-4.7191 5.6317-8.5703 8.6621c-3.8512 3.0305-9.7461 4.8496-9.7461 4.8496 1.3408 0.218 2.6969 0.4028 4.0645 0.5586a63.554 45.65 0 0 0 14.252-14.07z" fill-opacity=".20362"/>
   </g>
   <g>
    <g fill="#d8d8d8" stroke-width=".51908" aria-label="COLOMBIA">
     <path d="m-540.23 741.58q0-0.86513 0.31361-1.568 0.31902-0.70832 0.86513-1.2058t1.2815-0.7678q0.73536-0.27576 1.5789-0.27576 0.57855 0 1.0003 0.0919t0.7624 0.25954v1.6654l-0.0108 0.0108q-0.10273-0.1568-0.28657-0.29198t-0.42175-0.2325q-0.2325-0.0973-0.50826-0.1514t-0.56774-0.0541q-0.58937 0-1.076 0.18384-0.48123 0.17843-0.82728 0.50285-0.34605 0.32443-0.5353 0.7678-0.18924 0.44338-0.18924 0.96786 0 0.6867 0.22709 1.1571 0.2271 0.46501 0.57856 0.75158 0.35686 0.28657 0.78402 0.41093 0.42715 0.12437 0.82727 0.12437 0.29739 0 0.60019-0.0649 0.3082-0.0703 0.58396-0.20006 0.28116-0.12977 0.51907-0.31361t0.40012-0.41634l0.0162 0.0108v1.541q-0.41093 0.34065-0.98408 0.54071-0.57314 0.20006-1.2869 0.20006-0.8435 0-1.5194-0.27036-0.67588-0.27035-1.1517-0.75157-0.47041-0.48123-0.72454-1.1517-0.24873-0.67048-0.24873-1.4707z"/>
     <path d="m-533.18 741.64q0-0.77321 0.26495-1.4761 0.27035-0.70291 0.76239-1.2382 0.49745-0.5353 1.195-0.8489 0.6975-0.31902 1.5626-0.31902 0.70832 0 1.3572 0.23791 0.65425 0.23791 1.1517 0.70292 0.49744 0.465 0.78943 1.1463 0.29738 0.68129 0.29738 1.568 0 0.56774-0.14058 1.0706-0.13518 0.50286-0.38931 0.92461-0.24872 0.42175-0.59477 0.76239-0.34605 0.33524-0.76239 0.56774-0.41635 0.2325-0.88676 0.35686-0.47041 0.12437-0.96786 0.12437-0.76239 0-1.4275-0.25954-0.65966-0.25954-1.1517-0.72995t-0.77861-1.1301q-0.28117-0.65966-0.28117-1.4599zm1.395-0.0595q0 0.50285 0.18384 0.93542 0.18924 0.42715 0.50826 0.74076t0.75158 0.49204q0.43256 0.17303 0.9246 0.17303 0.46501 0 0.87054-0.16221 0.41093-0.16762 0.70832-0.47582 0.30279-0.31361 0.47582-0.75699 0.17302-0.44338 0.17302-0.9949 0-0.48663-0.1568-0.93001-0.15681-0.44337-0.4596-0.77861-0.29739-0.34064-0.72995-0.5407-0.42716-0.20006-0.96786-0.20006-0.52989 0-0.95164 0.20546-0.42175 0.20006-0.71914 0.54611-0.29738 0.34065-0.45419 0.79484-0.1568 0.45419-0.1568 0.95164z"/>
     <path d="m-524.29 737.86q0.0432 0.0108 0.22709 0.0216 0.18925 0.0108 0.44879 0.0108 0.11355 0 0.27035-5e-3t0.43256-0.0162v5.9153h1.4437q0.0811 0 0.19466 0 0.11354-5e-3 0.22709-0.0108 0.11355-5e-3 0.21088-0.0108 0.0973-5e-3 0.14599-0.0108l-0.0216 0.65966q-5e-3 0.12436-0.0108 0.24872 0 0.12436-5e-3 0.22169 0 0.0973 0 0.16221 0 0.0649 0 0.0757-0.1514-0.0108-0.31902-0.0216-0.16221-5e-3 -0.36768-0.0108-0.20006 0-0.45419-5e-3 -0.25413 0-0.58396 0h-0.89216q-0.16221 0-0.31361 0-0.1514 5e-3 -0.27576 0.0108-0.12436 5e-3 -0.21628 0.0108-0.0919 5e-3 -0.14058 0.0108z"/>
     <path d="m-519.67 741.64q0-0.77321 0.26495-1.4761 0.27035-0.70291 0.76239-1.2382 0.49745-0.5353 1.195-0.8489 0.69751-0.31902 1.5626-0.31902 0.70832 0 1.3572 0.23791 0.65425 0.23791 1.1517 0.70292 0.49745 0.465 0.78943 1.1463 0.29738 0.68129 0.29738 1.568 0 0.56774-0.14058 1.0706-0.13518 0.50286-0.38931 0.92461-0.24872 0.42175-0.59477 0.76239-0.34605 0.33524-0.76239 0.56774-0.41635 0.2325-0.88676 0.35686-0.47041 0.12437-0.96786 0.12437-0.76239 0-1.4275-0.25954-0.65966-0.25954-1.1517-0.72995t-0.77861-1.1301q-0.28117-0.65966-0.28117-1.4599zm1.395-0.0595q0 0.50285 0.18384 0.93542 0.18925 0.42715 0.50826 0.74076 0.31902 0.31361 0.75158 0.49204 0.43256 0.17303 0.9246 0.17303 0.46501 0 0.87054-0.16221 0.41093-0.16762 0.70832-0.47582 0.30279-0.31361 0.47582-0.75699 0.17302-0.44338 0.17302-0.9949 0-0.48663-0.1568-0.93001-0.1568-0.44337-0.4596-0.77861-0.29739-0.34064-0.72995-0.5407-0.42715-0.20006-0.96786-0.20006-0.52989 0-0.95164 0.20546-0.42175 0.20006-0.71913 0.54611-0.29739 0.34065-0.4542 0.79484-0.1568 0.45419-0.1568 0.95164z"/>
     <path d="m-510.78 737.87q0.17302 0.0108 0.29739 0.0162 0.12976 5e-3 0.2325 5e-3 0.3082 0 0.51907-0.0108 0.21629-0.0108 0.3028-0.0324l1.8168 3.0874 1.7465-3.0874q0.0433 0.0108 0.14058 0.0216 0.10274 5e-3 0.2271 0.0108 0.12436 5e-3 0.25953 0.0108 0.13518 0 0.24873 0 0.18925 0 0.31361-5e-3 0.12977-5e-3 0.30279-0.0162v7.213h-0.43256q-0.16221 0-0.31361 0-0.1514 5e-3 -0.27576 0.0108-0.12436 5e-3 -0.21628 0.0108-0.0919 5e-3 -0.14058 0.0108v-4.9366l-1.8222 3.255-1.8276-2.9955v4.6771q-0.0487-5e-3 -0.14058-0.0108-0.0919-5e-3 -0.21628-0.0108-0.12436-5e-3 -0.27576-0.0108-0.1514 0-0.31361 0h-0.43256z"/>
     <path d="m-502.43 737.93q0.48663-0.0865 0.90298-0.12436 0.42175-0.0433 0.77861-0.0433 0.6921 0 1.1841 0.1514 0.49745 0.15139 0.81106 0.39471 0.31901 0.24332 0.465 0.55693 0.1514 0.3082 0.1514 0.62721 0 0.31361-0.12436 0.61641-0.12436 0.29738-0.37309 0.5407 0.32983 0.14058 0.58937 0.35686 0.26495 0.21629 0.44338 0.48664t0.27035 0.58396q0.0973 0.3082 0.0973 0.63262 0 0.56774-0.23791 1.0328-0.23791 0.4596-0.6867 0.78943-0.44878 0.32982-1.0976 0.51366-0.64884 0.17844-1.4707 0.17844-0.18384 0-0.41094-0.0162-0.22709-0.0162-0.45959-0.0433-0.2271-0.0216-0.44879-0.0541-0.21628-0.027-0.3839-0.0541zm1.3788 2.4332q0.0919 0.0216 0.18924 0.0324 0.10274 5e-3 0.19466 5e-3 0.29738 0 0.50826-0.0649 0.21628-0.0703 0.34605-0.17302 0.13517-0.10814 0.19465-0.23251 0.0649-0.12977 0.0649-0.25413 0-0.31361-0.3028-0.49204-0.29738-0.17843-0.80024-0.17843-0.24332 0-0.39471 0.0162zm0 3.493q0.37849 0.0919 0.74617 0.0919 0.41093 0 0.72454-0.0919 0.31902-0.0919 0.5353-0.25954 0.21628-0.17303 0.32442-0.40553 0.11355-0.23791 0.11355-0.52448 0-0.22169-0.11355-0.42175-0.11355-0.20547-0.33524-0.36227-0.22168-0.15681-0.54611-0.24873-0.32442-0.0919-0.74617-0.0919-0.20547 0-0.3839 0.027-0.17843 0.0216-0.31901 0.0595z"/>
     <path d="m-495.8 737.87q0.13518 5e-3 0.22169 0.0108 0.0919 5e-3 0.16762 0.0108 0.0811 0 0.16221 0 0.0865 0 0.20006 0 0.17843 0 0.35686-0.0108 0.18384-0.0108 0.27036-0.0324v7.2671q-0.0487-5e-3 -0.14059-0.0108-0.0919-5e-3 -0.21628-0.0108-0.12436-5e-3 -0.27576-0.0108-0.15139 0-0.31361 0h-0.43256z"/>
     <path d="m-490.95 738.5q0.0919-0.25954 0.12436-0.37849 0.0324-0.12437 0.0324-0.18384 0-0.0324-5e-3 -0.0433l5e-3 -0.0108q0.2325 0.0108 0.41094 0.0162 0.17843 0 0.33523 0 0.15681 0 0.35146 0 0.20006-5e-3 0.42716-0.0108l5e-3 0.0108q-0.0108 0.0324-0.0108 0.0432 0 0.0541 0.0324 0.17844 0.0324 0.11895 0.12977 0.38389l2.4007 6.602q-0.10814-5e-3 -0.25413-0.0108-0.14599 0-0.28117-5e-3 -0.13518 0-0.24332 0-0.10273 0-0.12436 0h-0.71373l-0.50826-1.5572h-2.444l-0.50826 1.6005q-0.29198-0.027-0.58396-0.0379-0.28658-5e-3 -0.50286-5e-3h-0.42716zm1.6924 3.7363-0.81646-2.5143-0.79484 2.5143z"/>
    </g>
    <g transform="rotate(-90)" fill="#afafaf" stroke-width=".184" aria-label="ASOCIACIÓN">
     <path d="m-744.14-545.63q0.0326-0.092 0.0441-0.13417 0.0115-0.0441 0.0115-0.0652 0-0.0115-2e-3 -0.0153l2e-3 -4e-3q0.0824 4e-3 0.14567 6e-3 0.0633 0 0.11883 0 0.0556 0 0.12459 0 0.0709-2e-3 0.15142-4e-3l2e-3 4e-3q-4e-3 0.0115-4e-3 0.0153 0 0.0192 0.0115 0.0633 0.0115 0.0422 0.046 0.13609l0.85102 2.3403q-0.0383-2e-3 -0.0901-4e-3 -0.0517 0-0.0997-2e-3 -0.0479 0-0.0863 0-0.0364 0-0.0441 0h-0.25301l-0.18017-0.55201h-0.86635l-0.18017 0.56735q-0.1035-0.01-0.207-0.0134-0.10158-2e-3 -0.17825-2e-3h-0.15142zm0.59993 1.3244-0.28942-0.89126-0.28176 0.89126z"/>
     <path d="m-742.35-544.17 8e-3 -6e-3q0.0498 0.10925 0.13417 0.1955 0.0843 0.0863 0.19551 0.14758 0.11308 0.0594 0.24534 0.092 0.13417 0.0326 0.28175 0.0326 0.11692 0 0.22042-0.0192 0.10542-0.0192 0.18209-0.0594 0.0786-0.0422 0.12267-0.10542 0.046-0.0652 0.046-0.15526 0-0.0652-0.0268-0.11883-0.0249-0.0537-0.0843-0.0939-0.0594-0.0422-0.15717-0.069-0.0978-0.0268-0.2415-0.0402-0.25876-0.023-0.4351-0.0843-0.17633-0.0633-0.28558-0.15717-0.10926-0.0958-0.15717-0.22042-0.046-0.1265-0.046-0.276 0-0.16867 0.069-0.31243 0.069-0.14375 0.19358-0.24917 0.12651-0.10542 0.29901-0.16483 0.1725-0.0594 0.37951-0.0594 0.1265 0 0.23 0.0134 0.10542 0.0134 0.19359 0.0383 0.0901 0.0249 0.16675 0.0613 0.0767 0.0345 0.14567 0.0767l-0.0364 0.56351-0.0134 4e-3q-0.046-0.069-0.11884-0.12459-0.0728-0.0556-0.16484-0.0939-0.092-0.0383-0.19933-0.0575-0.10542-0.0211-0.22042-0.0211-0.10351 0-0.18401 0.0211t-0.138 0.0575q-0.0556 0.0345-0.0862 0.0843-0.0288 0.0479-0.0288 0.1035 0 0.0671 0.0249 0.11884 0.0249 0.0498 0.0882 0.0901 0.0652 0.0383 0.17442 0.069 0.11117 0.0288 0.28176 0.0517 0.23384 0.0288 0.39867 0.0901 0.16484 0.0613 0.26834 0.15525 0.10542 0.092 0.15334 0.21659 0.0479 0.12458 0.0479 0.28175 0 0.15142-0.0441 0.27409-0.0441 0.12075-0.12075 0.21467-0.0747 0.0939-0.17825 0.16101-0.10351 0.0671-0.22234 0.11116-0.11692 0.0441-0.24534 0.0633-0.1265 0.0211-0.25109 0.0211-0.28559 0-0.50409-0.0652-0.21851-0.0671-0.38143-0.17825z"/>
     <path d="m-740.08-544.51q0-0.27409 0.0939-0.52326 0.0958-0.24917 0.27026-0.43892 0.17633-0.18976 0.42359-0.30093 0.24725-0.11308 0.55392-0.11308 0.25109 0 0.4811 0.0843 0.23192 0.0843 0.40825 0.24918 0.17634 0.16483 0.27984 0.40634 0.10542 0.2415 0.10542 0.55584 0 0.20125-0.0498 0.37951-0.0479 0.17825-0.13801 0.32775-0.0882 0.14951-0.21083 0.27026-0.12267 0.11883-0.27026 0.20125-0.14758 0.0824-0.31434 0.12651-0.16675 0.0441-0.34309 0.0441-0.27025 0-0.50601-0.092-0.23383-0.092-0.40825-0.25876-0.17442-0.16675-0.27601-0.40059-0.0997-0.23384-0.0997-0.51751zm0.49451-0.0211q0 0.17825 0.0652 0.33159 0.0671 0.15142 0.18017 0.26259 0.11308 0.11116 0.26642 0.17442 0.15334 0.0613 0.32776 0.0613 0.16483 0 0.30859-0.0575 0.14567-0.0594 0.25108-0.16867 0.10734-0.11117 0.16867-0.26834 0.0613-0.15717 0.0613-0.35267 0-0.17251-0.0556-0.32968-0.0556-0.15716-0.16292-0.276-0.10541-0.12075-0.25875-0.19167-0.15142-0.0709-0.34309-0.0709-0.18784 0-0.33734 0.0728-0.1495 0.0709-0.25492 0.19358-0.10542 0.12076-0.161 0.28176-0.0556 0.161-0.0556 0.33734z"/>
     <path d="m-737.08-544.54q0-0.30667 0.11116-0.55584 0.11309-0.25109 0.30668-0.42743 0.19358-0.17633 0.45426-0.27217 0.26067-0.0978 0.55967-0.0978 0.20509 0 0.35459 0.0326 0.14951 0.0326 0.27026 0.092v0.59035l-4e-3 4e-3q-0.0364-0.0556-0.10158-0.1035-0.0652-0.0479-0.1495-0.0824-0.0824-0.0345-0.18017-0.0537-0.0978-0.0192-0.20126-0.0192-0.20892 0-0.38142 0.0652-0.17059 0.0632-0.29326 0.17825-0.12267 0.115-0.18975 0.27217-0.0671 0.15717-0.0671 0.34309 0 0.24342 0.0805 0.41018 0.0805 0.16483 0.20508 0.26642 0.12651 0.10158 0.27793 0.14567 0.15142 0.0441 0.29325 0.0441 0.10542 0 0.21276-0.023 0.10925-0.0249 0.207-0.0709 0.0997-0.046 0.184-0.11117 0.0843-0.0652 0.14184-0.14758l6e-3 4e-3v0.54626q-0.14567 0.12075-0.34884 0.19167-0.20317 0.0709-0.45618 0.0709-0.299 0-0.53859-0.0958t-0.40826-0.26642q-0.16675-0.17058-0.25684-0.40826-0.0882-0.23767-0.0882-0.52134z"/>
     <path d="m-734.42-545.85q0.0479 2e-3 0.0786 4e-3 0.0326 2e-3 0.0594 4e-3 0.0288 0 0.0575 0 0.0307 0 0.0709 0 0.0633 0 0.12651-4e-3 0.0652-4e-3 0.0958-0.0115v2.576q-0.0173-2e-3 -0.0498-4e-3 -0.0326-2e-3 -0.0767-4e-3t-0.0978-4e-3q-0.0537 0-0.11117 0h-0.15334z"/>
     <path d="m-732.7-545.63q0.0326-0.092 0.0441-0.13417 0.0115-0.0441 0.0115-0.0652 0-0.0115-2e-3 -0.0153l2e-3 -4e-3q0.0824 4e-3 0.14567 6e-3 0.0633 0 0.11884 0 0.0556 0 0.12458 0 0.0709-2e-3 0.15142-4e-3l2e-3 4e-3q-4e-3 0.0115-4e-3 0.0153 0 0.0192 0.0115 0.0633 0.0115 0.0422 0.046 0.13609l0.85101 2.3403q-0.0383-2e-3 -0.0901-4e-3 -0.0517 0-0.0997-2e-3 -0.0479 0-0.0863 0-0.0364 0-0.0441 0h-0.253l-0.18017-0.55201h-0.86635l-0.18017 0.56735q-0.10351-0.01-0.20701-0.0134-0.10158-2e-3 -0.17825-2e-3h-0.15142zm0.59992 1.3244-0.28942-0.89126-0.28175 0.89126z"/>
     <path d="m-730.96-544.54q0-0.30667 0.11117-0.55584 0.11309-0.25109 0.30667-0.42743 0.19359-0.17633 0.45426-0.27217 0.26067-0.0978 0.55968-0.0978 0.20509 0 0.35459 0.0326t0.27026 0.092v0.59035l-4e-3 4e-3q-0.0364-0.0556-0.10158-0.1035-0.0652-0.0479-0.14951-0.0824-0.0824-0.0345-0.18017-0.0537-0.0978-0.0192-0.20125-0.0192-0.20892 0-0.38142 0.0652-0.17059 0.0632-0.29326 0.17825-0.12267 0.115-0.18975 0.27217-0.0671 0.15717-0.0671 0.34309 0 0.24342 0.0805 0.41018 0.0805 0.16483 0.20509 0.26642 0.1265 0.10158 0.27792 0.14567 0.15142 0.0441 0.29326 0.0441 0.10542 0 0.21275-0.023 0.10925-0.0249 0.20701-0.0709 0.0997-0.046 0.184-0.11117 0.0843-0.0652 0.14184-0.14758l6e-3 4e-3v0.54626q-0.14567 0.12075-0.34884 0.19167-0.20317 0.0709-0.45618 0.0709-0.299 0-0.53859-0.0958t-0.40826-0.26642q-0.16675-0.17058-0.25684-0.40826-0.0882-0.23767-0.0882-0.52134z"/>
     <path d="m-728.3-545.85q0.0479 2e-3 0.0786 4e-3 0.0326 2e-3 0.0594 4e-3 0.0288 0 0.0575 0 0.0307 0 0.0709 0 0.0633 0 0.12651-4e-3 0.0652-4e-3 0.0958-0.0115v2.576q-0.0172-2e-3 -0.0498-4e-3t-0.0767-4e-3 -0.0977-4e-3q-0.0537 0-0.11117 0h-0.15334z"/>
     <path d="m-725.97-546.66q0.10733 0 0.18784-2e-3 0.0805-2e-3 0.1495-6e-3 0.069-6e-3 0.13417-0.0115 0.0652-6e-3 0.14183-0.0134l-2e-3 0.0134-0.50218 0.6191h-0.43317zm-1.288 2.1486q0-0.27409 0.0939-0.52326 0.0958-0.24917 0.27026-0.43892 0.17633-0.18976 0.42359-0.30093 0.24725-0.11308 0.55393-0.11308 0.25109 0 0.48109 0.0843 0.23192 0.0843 0.40826 0.24918 0.17633 0.16483 0.27984 0.40634 0.10541 0.2415 0.10541 0.55584 0 0.20125-0.0498 0.37951-0.0479 0.17825-0.138 0.32775-0.0882 0.14951-0.21084 0.27026-0.12267 0.11883-0.27025 0.20125-0.14759 0.0824-0.31434 0.12651-0.16676 0.0441-0.34309 0.0441-0.27026 0-0.50601-0.092-0.23384-0.092-0.40826-0.25876-0.17442-0.16675-0.27601-0.40059-0.0997-0.23384-0.0997-0.51751zm0.49451-0.0211q0 0.17825 0.0652 0.33159 0.0671 0.15142 0.18017 0.26259 0.11309 0.11116 0.26642 0.17442 0.15334 0.0613 0.32776 0.0613 0.16484 0 0.30859-0.0575 0.14567-0.0594 0.25109-0.16867 0.10733-0.11117 0.16867-0.26834 0.0613-0.15717 0.0613-0.35267 0-0.17251-0.0556-0.32968-0.0556-0.15716-0.16292-0.276-0.10542-0.12075-0.25876-0.19167-0.15142-0.0709-0.34309-0.0709-0.18783 0-0.33734 0.0728-0.1495 0.0709-0.25492 0.19358-0.10542 0.12076-0.161 0.28176-0.0556 0.161-0.0556 0.33734z"/>
     <path d="m-724.15-543.29q6e-3 -0.0326 8e-3 -0.0633 4e-3 -0.0326 4e-3 -0.0786v-2.4074h0.42167q0.0997 0.18783 0.20126 0.368 0.10158 0.18017 0.21084 0.36609 0.10925 0.18401 0.23 0.38334 0.12075 0.19742 0.25875 0.41976v-1.4069q0-0.10542-0.0192-0.13033h0.51751q-4e-3 0.0307-8e-3 0.0728-2e-3 0.0403-2e-3 0.0958v2.3805h-0.41784q-0.10542-0.16292-0.19167-0.29325-0.0843-0.13226-0.15908-0.24534-0.0728-0.11309-0.13992-0.21659-0.0652-0.10542-0.13034-0.21275-0.0652-0.10734-0.13417-0.22617-0.069-0.12076-0.1495-0.26643v1.4605z"/>
    </g>
    <g fill="#fff" stroke-width=".751" aria-label="DRUPAL">
     <path d="m-540.23 722.44q0.52413-0.0626 1.0483-0.0939 0.52413-0.0313 1.017-0.0313 1.4551 0 2.5737 0.39115 1.1187 0.39115 1.8775 1.0952 0.75882 0.70406 1.15 1.6741 0.39115 0.97004 0.39115 2.1278 0 1.3455-0.46155 2.3782-0.45373 1.0248-1.2517 1.721-0.79011 0.69624-1.8618 1.0561-1.0639 0.35203-2.2765 0.35203-0.24251 0-0.52414-0.0156-0.2738-0.0156-0.56325-0.0391-0.28944-0.0235-0.57889-0.0626-0.28163-0.0391-0.53978-0.0861zm1.9948 8.746q0.35203 0.0469 0.72753 0.0469 0.67277 0 1.2751-0.20339 0.61019-0.2034 1.0639-0.61019 0.45372-0.40679 0.7197-1.0092 0.26598-0.61019 0.26598-1.4081 0-0.87616-0.26598-1.5802-0.25815-0.70406-0.751-1.1969-0.49284-0.50066-1.1969-0.76664t-1.588-0.26598q-0.0626 0-0.12517 0-0.0626 0-0.12516 8e-3z"/>
     <path d="m-530.07 722.45q0.48502-0.0704 0.98569-0.1017 0.50848-0.0391 1.1578-0.0391 1.0796 0 1.9244 0.25034 0.8527 0.24251 1.4316 0.68841 0.57889 0.43809 0.88399 1.0561 0.30509 0.61801 0.30509 1.3612 0 0.75882-0.34421 1.3925-0.3442 0.63365-1.0092 1.0796l1.6272 3.5516q0.25034 0.55543 0.41462 0.84488 0.16428 0.28162 0.30509 0.39114l-0.0391 0.0391q-0.19558-0.0313-0.38333-0.0469-0.18775-8e-3 -0.3755-8e-3 -0.29727 0-0.68059 8e-3 -0.3755 0.0156-0.86834 0.0548l-1.7836-4.1696q-0.23469 0.0391-0.48502 0.0626-0.24251 0.0156-0.50849 0.0156-0.13299 0-0.28163-8e-3 -0.14081-8e-3 -0.28162-0.0235v4.0601h-1.9948zm1.9948 4.592q0.21122 0.0391 0.40679 0.0469 0.19557 0 0.36768 0 0.40679 0 0.75882-0.10952t0.61019-0.29727q0.25815-0.18775 0.40679-0.43809 0.14863-0.25033 0.14863-0.53978 0-0.30509-0.15646-0.57889-0.15645-0.28162-0.46155-0.48502-0.29727-0.21122-0.74317-0.32856-0.44591-0.12517-1.0248-0.12517-0.0861 0-0.16428 0-0.0782 0-0.14864 8e-3z"/>
     <path d="m-520.8 722.47q0.39897 0.0235 0.60237 0.0313 0.20339 8e-3 0.31291 8e-3 0.25816 0 0.42244 0 0.17211-8e-3 0.28945-0.0157 0.11734-8e-3 0.20339-0.0156 0.0939-0.0156 0.18775-0.0313v6.7512q0 0.51631 0.14082 0.89963 0.14081 0.38332 0.39114 0.63366 0.25033 0.25033 0.58672 0.3755 0.33638 0.12516 0.73535 0.12516 0.35203 0 0.6493-0.12516 0.3051-0.12517 0.51631-0.40679 0.21905-0.28945 0.33639-0.751 0.12517-0.46155 0.12517-1.1422v-6.3366q0.18774 0.0157 0.32856 0.0235 0.14863 8e-3 0.2738 0.0157 0.13299 0 0.25815 0 0.13299 0 0.29727 0 0.29727 0 0.48502-0.0157 0.19558-0.0156 0.3755-0.0469v6.4695q0 0.99351-0.26597 1.7758-0.26598 0.77447-0.74318 1.3142t-1.15 0.82141q-0.66494 0.28162-1.4629 0.28162-0.84487 0-1.5646-0.22686-0.71188-0.23469-1.2282-0.71971-0.51631-0.49284-0.81358-1.2517-0.28945-0.75882-0.28945-1.8149z"/>
     <path d="m-510.48 722.45q0.96221-0.14082 1.9166-0.14082 1.0561 0 1.9166 0.27381 0.86052 0.2738 1.4707 0.79011 0.61018 0.50849 0.93874 1.2517 0.32857 0.73536 0.32857 1.6663 0 0.61019-0.17993 1.1422-0.17211 0.53195-0.4772 0.97004-0.30509 0.43026-0.71971 0.77446-0.40679 0.33639-0.88398 0.57107-0.4772 0.23469-0.99351 0.35986-0.51631 0.11734-1.0326 0.11734-0.0704 0-0.14082 0-0.0704-8e-3 -0.14863-0.0156v2.6989h-1.9948zm1.9948 5.8906q0.0469 0.0157 0.0861 0.0157 0.0469 0 0.1017 0 0.45373 0 0.88399-0.11735 0.43026-0.11734 0.75882-0.35203 0.33638-0.24251 0.53978-0.60236 0.20339-0.35985 0.20339-0.8527 0-0.49284-0.1721-0.89963-0.16428-0.41461-0.46155-0.71188t-0.71189-0.46155q-0.41461-0.16429-0.91528-0.16429-0.0861 0-0.16428 0-0.0782 0-0.14863 8e-3z"/>
     <path d="m-499.63 723.38q0.13299-0.3755 0.17993-0.5476 0.0469-0.17993 0.0469-0.26598 0-0.0469-8e-3 -0.0626l8e-3 -0.0156q0.33638 0.0156 0.59454 0.0235 0.25815 0 0.48502 0 0.22686 0 0.50849 0 0.28944-8e-3 0.618-0.0157l8e-3 0.0157q-0.0156 0.0469-0.0156 0.0626 0 0.0782 0.0469 0.25816 0.0469 0.1721 0.18775 0.55542l3.4734 9.5518q-0.15646-8e-3 -0.36768-0.0156-0.21122 0-0.40679-8e-3 -0.19557 0-0.35203 0-0.14864 0-0.17993 0h-1.0326l-0.73535-2.253h-3.536l-0.73536 2.3156q-0.42243-0.0391-0.84487-0.0548-0.41461-8e-3 -0.72753-8e-3h-0.61801zm2.4486 5.4056-1.1813-3.6376-1.15 3.6376z"/>
     <path d="m-491.92 722.46q0.0626 0.0156 0.32856 0.0313 0.2738 0.0157 0.6493 0.0157 0.16429 0 0.39115-8e-3t0.62583-0.0235v8.5582h2.0887q0.11734 0 0.28162 0 0.16428-8e-3 0.32856-0.0157 0.16428-8e-3 0.3051-0.0156 0.14081-8e-3 0.21121-0.0157l-0.0313 0.9544q-8e-3 0.17992-0.0156 0.35985 0 0.17993-8e-3 0.32074 0 0.14081 0 0.23469 0 0.0939 0 0.10952-0.21904-0.0156-0.46155-0.0313-0.23468-8e-3 -0.53195-0.0156-0.28945 0-0.65713-8e-3 -0.36767 0-0.84487 0h-1.2908q-0.23469 0-0.45373 0-0.21904 8e-3 -0.39897 0.0156-0.17992 8e-3 -0.31291 0.0156-0.13299 8e-3 -0.2034 0.0156z"/>
    </g>
   </g>
  </g>
 </g>
</svg>
