<?xml version="1.0" encoding="UTF-8"?>
<!-- Created with Inkscape (http://www.inkscape.org/) -->
<svg width="76.608mm" height="27.797mm" version="1.1" viewBox="0 0 76.608 27.797" xmlns="http://www.w3.org/2000/svg" xmlns:cc="http://creativecommons.org/ns#" xmlns:dc="http://purl.org/dc/elements/1.1/" xmlns:rdf="http://www.w3.org/1999/02/22-rdf-syntax-ns#">
 <metadata>
  <rdf:RDF>
   <cc:Work rdf:about="">
    <dc:format>image/svg+xml</dc:format>
    <dc:type rdf:resource="http://purl.org/dc/dcmitype/StillImage"/>
    <dc:title/>
   </cc:Work>
  </rdf:RDF>
 </metadata>
 <g transform="translate(-49.386 -90.333)">
  <path d="m59.689 90.333c-3.8544 5.356-4.0852 5.4942-6.4342 8.1096-2.3483 2.6151-4.3583 6.9382-3.762 10.594 0.97359 5.9688 6.9127 9.967 13.266 8.9307 1.8882-0.30799 3.598-1.0288 5.0467-2.0428 3.1074-1.7795 4.9746-5.3682 4.8209-9.2661 0.0354-0.16771 0.0101-0.3246-0.0161-0.4842-0.0135-0.0893-0.0283-0.17824-0.0439-0.26717-0.0335-0.20535-0.0665-0.40941-0.10078-0.6196-0.0378-0.23167-0.13748-0.45573-0.17568-0.68988-1.7331-7.0852-9.9316-7.8553-12.601-14.264zm47.887 6.8084c-1.2486 0-1.7622 0.88691-1.7622 2.0655v4.1775c0 1.1786 0.51356 2.0655 1.7622 2.0655 1.2486 0 1.7622-0.88691 1.7622-2.0655v-0.93379h-0.51366v0.96893c0 0.8752-0.33808 1.5286-1.2366 1.5286-0.89852 0-1.2371-0.65339-1.2371-1.5286v-4.2478c0-0.8752 0.33859-1.5405 1.2371-1.5405 0.89856 0 1.2366 0.66528 1.2366 1.5405v0.7121h0.51366v-0.67696c0-1.1786-0.51355-2.0655-1.7622-2.0655zm4.7501 0.05839-1.7854 8.1799h0.4899l0.40822-1.8087h2.544l0.40823 1.8087h0.53692l-1.82-8.1799zm-36.26 0.01138v8.1685h2.0304c1.2836 0 1.9141-0.71153 1.9141-2.0185v-4.131c0-1.307-0.63048-2.019-1.9141-2.019zm5.2183 0v8.1685h1.2836v-3.3254h0.44339c0.58346 0 0.84024 0.27968 0.84024 1.0382v1.2836c0 0.66515 0.0468 0.79351 0.11681 1.0036h1.3069c-0.12835-0.3034-0.14004-0.59492-0.14004-0.99168v-1.2604c0-0.85186-0.20982-1.47-0.85162-1.7384 0.57179-0.26839 0.84024-0.81708 0.84024-1.6573v-0.64182c0-1.2603-0.5719-1.879-1.9022-1.879zm5.0917 0v6.2198c0 1.307 0.65381 2.0541 1.9141 2.0541 1.2603 0 1.9136-0.74718 1.9136-2.0541v-6.2198h-1.2134v6.3014c0 0.58346-0.25718 0.79375-0.66559 0.79375-0.40844 0-0.66508-0.21029-0.66508-0.79375v-6.3014zm5.163 0v8.1685h1.2837v-3.0686h0.60669c1.2836 0 1.9136-0.71204 1.9136-2.019v-1.0619c0-1.307-0.62997-2.019-1.9136-2.019zm5.6627 0-1.3069 8.1685h1.1787l0.22169-1.4816h1.5751l0.2217 1.4816h1.2955l-1.3069-8.1685zm4.2271 0v8.1685h3.3957v-1.1669h-2.112v-7.0016zm14.766 0v8.1685h0.47853v-7.2347l1.727 7.2233h0.53692l1.7038-7.2466v7.258h0.51316v-8.1685h-0.76999l-1.7038 7.2233-1.7157-7.2233zm6.3578 0v8.1685h0.53692v-3.3605h1.0154c1.2953 0 1.8903-0.64206 1.8903-1.9374v-0.88677c0-1.1903-0.48999-1.9839-1.7503-1.9839zm0.53692 0.49041h1.1555c0.91022 0 1.2134 0.57196 1.2134 1.4588v0.95653c0 0.99189-0.4082 1.4123-1.3534 1.4123h-1.0154zm-10.39 0.11679 1.202 5.286h-2.3807zm-35.35 0.56018h0.72348c0.40844 0 0.6537 0.20977 0.6537 0.79323v4.2478c0 0.58346-0.24526 0.79323-0.6537 0.79323h-0.72348zm5.2183 0h0.61857c0.45508 0 0.6537 0.25628 0.6537 0.83974v0.80563c0 0.65348-0.29207 0.86351-0.77049 0.86351h-0.50178zm10.255 0h0.60669c0.40841 0 0.62992 0.18652 0.62992 0.76998v1.2252c0 0.58346-0.22151 0.76998-0.62992 0.76998h-0.60669zm5.2545 0.28008 0.61804 4.1305h-1.2366zm-37.079 0.02739a8.3372 8.3372 0 0 1 8.3375 8.337 8.3372 8.3372 0 0 1-8.3375 8.3375 8.3372 8.3372 0 0 1-7.4429-4.5842h12.475c0.24749 0 0.44648-0.1995 0.44648-0.447 0-0.24749-0.19899-0.44648-0.44648-0.44648h-12.857a8.3372 8.3372 0 0 1-0.22223-0.68833h10.351c0.22538 0 0.4735-0.16852 0.4072-0.35812l-7e-3 -0.0196h0.58703c0.097 0 0.17518-0.0777 0.17518-0.17466v-0.51418c0-0.097-0.0782-0.17519-0.17518-0.17519h-0.88989v-3e-3h0.0977l-1.5803-4.2364c-0.0153-0.0437-0.034-0.0855-0.0553-0.12506-6e-3 -0.0116-0.0138-0.0215-0.0206-0.0326-0.0114-0.0187-0.0217-0.0385-0.0351-0.0553v8e-3c-0.0691-0.0894-0.16145-0.15347-0.29663-0.15347h-7.9876a8.3372 8.3372 0 0 1 7.4755-4.669zm-7.7359 5.4767h7.3546c0.12099 0 0.2186 0.0975 0.2186 0.21859v2.1254c0 0.12103-0.0976 0.21859-0.2186 0.21859h-7.9406a8.3372 8.3372 0 0 1 0.14574-1.3198c0.12049-0.42038 0.26839-0.83656 0.44029-1.2428zm24.365 4.4855c-0.78587 0-1.1932 0.46608-1.1932 1.2811v2.6484c0 0.81497 0.40735 1.2805 1.1932 1.2805 0.78586 0 1.1937-0.46557 1.1937-1.2805v-0.67645h-0.75706v0.7276c0 0.36384-0.15975 0.49455-0.41444 0.49455-0.25469 0-0.41497-0.13071-0.41497-0.49455v-2.7507c0-0.36383 0.16028-0.50178 0.41497-0.50178 0.25469 0 0.41444 0.13795 0.41444 0.50178v0.5457h0.75706v-0.49454c0-0.81498-0.40786-1.2811-1.1937-1.2811zm3.1197 0c-0.78587 0-1.2149 0.46608-1.2149 1.2811v2.6484c0 0.81497 0.42905 1.2805 1.2149 1.2805 0.78586 0 1.2154-0.46557 1.2154-1.2805v-2.6484c0-0.81498-0.42958-1.2811-1.2154-1.2811zm5.9252 0c-0.7859 0-1.2149 0.46608-1.2149 1.2811v2.6484c0 0.81497 0.42902 1.2805 1.2149 1.2805 0.78586 0 1.2154-0.46557 1.2154-1.2805v-2.6484c0-0.81498-0.42955-1.2811-1.2154-1.2811zm-3.9062 0.0584v5.0937h2.1177v-0.7276h-1.3172v-4.3661zm5.918 0v5.0937h0.69865v-3.6018l0.59688 3.6018h0.75652l0.55295-3.653v3.653h0.75706v-5.0937h-1.1136l-0.5457 3.6163-0.58909-3.6163zm4.2276 0v5.0937h1.2588c0.80042 0 1.2154-0.42232 1.2155-1.2082v-0.41445c0-0.53847-0.16756-0.92404-0.59688-1.0914 0.35656-0.16736 0.51676-0.50238 0.51676-1.0263v-0.1819c0-0.78587-0.35644-1.1715-1.186-1.1715zm3.2401 0v5.0937h0.80047v-5.0937zm2.266 0-0.81492 5.0937h0.73483l0.13849-0.92397h0.98237l0.13798 0.92397h0.80769l-0.81492-5.0937zm-17.671 0.66972c0.25469 0 0.41497 0.13795 0.41497 0.50178v2.7507c0 0.36384-0.16028 0.50178-0.41497 0.50178-0.25466 0-0.41495-0.13794-0.41495-0.50178v-2.7507c0-0.36383 0.16029-0.50178 0.41495-0.50178zm5.9252 0c0.25466 0 0.41494 0.13795 0.41494 0.50178v2.7507c0 0.36384-0.16028 0.50178-0.41494 0.50178-0.25469 0-0.41447-0.13794-0.41445-0.50178v-2.7507c0-0.36383 0.15976-0.50178 0.41445-0.50178zm7.0399 0.0579h0.38603c0.28376 0 0.40719 0.16017 0.40719 0.524v0.2837c0 0.40749-0.18171 0.53847-0.48006 0.53847h-0.31316zm5.2513 0.17467 0.38553 2.5761h-0.77102zm-5.2513 1.8991h0.35655c0.36383 0 0.51679 0.14558 0.51679 0.61856v0.4439c0 0.37839-0.14574 0.5023-0.41498 0.5023h-0.45836z" fill="#fff" opacity=".97"/>
 </g>
</svg>
